<svg width="150" height="43" viewBox="0 0 150 43" fill="none" xmlns="http://www.w3.org/2000/svg">
<path d="M0 1.4082H9.96112L19.8292 21.6857L29.6971 1.4082H39.6583L20.1084 40.8367H19.5499L0 1.4082Z" fill="white"/>
<path d="M81.1779 1.4082H91.0458V20.3714C91.0458 24.0327 91.3251 26.6613 91.7906 28.0694C92.2561 29.4776 93.094 30.6041 94.2109 31.449C95.328 32.2 96.7244 32.6694 98.3071 32.6694C99.8897 32.6694 101.286 32.2939 102.496 31.449C103.613 30.698 104.451 29.4776 105.01 27.9756C105.382 26.849 105.661 24.4082 105.661 20.6531V1.4082H115.437V18.1184C115.437 24.9714 114.878 29.6653 113.854 32.2C112.551 35.298 110.595 37.645 108.082 39.3347C105.475 41.0246 102.31 41.7756 98.3071 41.7756C94.0247 41.7756 90.5804 40.8367 87.8807 38.8653C85.274 36.8939 83.4121 34.2653 82.295 30.7919C81.5502 28.445 81.1779 24.0327 81.1779 17.7429V1.4082Z" fill="white"/>
<path d="M118.698 1.4082H148.674L131.079 32.4817H147.649V40.8367H115.998L133.686 9.76332H118.698V1.4082Z" fill="white"/>
<mask id="mask0_105_902" style="mask-type:luminance" maskUnits="userSpaceOnUse" x="36" y="0" width="42" height="25">
<path d="M43.8465 16.8983C45.1498 13.0493 47.4772 10.3269 51.1078 8.54325C52.8766 7.69835 54.8317 7.32284 56.7867 7.32284C59.3002 7.32284 61.6275 7.97998 63.7687 9.29427C66.3754 10.8902 68.3303 13.0493 69.3544 15.9596C70.0061 17.6493 70.0991 17.6493 68.7028 17.6493C68.5165 17.6493 68.4234 17.6493 68.2373 17.6493C61.5344 17.6493 54.7385 17.6493 48.0358 17.6493C47.5703 17.6493 47.0118 17.6493 46.5462 17.6493C45.8015 17.6493 45.0567 17.6493 44.3119 17.6493H44.2188C43.8465 17.5555 43.7534 17.4616 43.8465 16.8983ZM53.3421 0.751407C49.6184 1.40855 46.3601 2.91059 43.5673 5.35141C40.3089 8.07385 38.1677 11.6412 36.9575 15.7718C36.2127 18.3065 36.1196 20.8412 36.3058 23.3759C36.3989 24.5025 36.5851 24.5963 37.7023 24.5963H56.7867C63.1171 24.5963 69.5406 24.5963 75.871 24.5963C77.0812 24.5963 77.1743 24.4086 77.3606 23.1882C77.4537 21.8739 77.4537 20.4657 77.3606 19.1515C77.0812 15.7718 75.9641 12.6739 74.1022 9.76365C72.2404 6.85345 69.8199 4.69427 66.8408 3.00447C64.5135 1.69018 61.9069 0.845285 59.2071 0.563652C58.4624 0.469775 57.7176 0.469774 56.9728 0.469774C55.7626 0.375897 54.5523 0.469775 53.3421 0.751407Z" fill="white"/>
</mask>
<g mask="url(#mask0_105_902)">
<path d="M77.3601 0.375977H36.2124V24.5025H77.3601V0.375977Z" fill="url(#paint0_linear_105_902)"/>
</g>
<mask id="mask1_105_902" style="mask-type:luminance" maskUnits="userSpaceOnUse" x="41" y="30" width="31" height="12">
<path d="M45.8041 30.7913C44.687 31.9179 43.4768 33.1383 42.2665 34.2647C41.7079 34.828 41.8011 35.1097 42.2665 35.6729C43.5699 37.0812 45.1524 38.3015 46.8281 39.1464C49.9003 40.8362 53.1586 41.775 56.6962 41.6812C59.3959 41.6812 62.0026 41.2117 64.423 40.179C67.0297 39.0526 69.357 37.5505 71.312 35.4852C71.7775 35.0158 71.7775 34.7342 71.312 34.2647C70.1017 33.1383 68.9846 31.9179 67.7745 30.7913C67.0297 30.0403 67.0297 30.0403 66.1918 30.7913C65.4471 31.5423 64.7023 32.1995 63.8644 32.6689C60.6992 34.6403 57.2547 35.1097 53.7171 34.3586C51.2035 33.7954 48.9693 32.4812 47.1074 30.6974C46.735 30.3219 46.6419 30.228 46.4558 30.228C46.3627 30.3219 46.1765 30.5097 45.8041 30.7913Z" fill="white"/>
</mask>
<g mask="url(#mask1_105_902)">
<path d="M71.9644 30.1343H41.8017V41.775H71.9644V30.1343Z" fill="url(#paint1_linear_105_902)"/>
</g>
<defs>
<linearGradient id="paint0_linear_105_902" x1="36.3133" y1="12.4953" x2="77.3662" y2="12.4953" gradientUnits="userSpaceOnUse">
<stop stop-color="#00ABC7"/>
<stop offset="0.1151" stop-color="#00ADBE"/>
<stop offset="0.338" stop-color="#26B2A6"/>
<stop offset="0.6462" stop-color="#6ABC7E"/>
<stop offset="1" stop-color="#9DCB3B"/>
</linearGradient>
<linearGradient id="paint1_linear_105_902" x1="41.9461" y1="36.0005" x2="71.7806" y2="36.0005" gradientUnits="userSpaceOnUse">
<stop stop-color="#00ABC7"/>
<stop offset="0.1151" stop-color="#00ADBE"/>
<stop offset="0.338" stop-color="#26B2A6"/>
<stop offset="0.6462" stop-color="#6ABC7E"/>
<stop offset="1" stop-color="#9DCB3B"/>
</linearGradient>
</defs>
</svg>
