<svg width="30" height="36" viewBox="0 0 30 36" fill="none" xmlns="http://www.w3.org/2000/svg">
<path d="M18 10.5V0.69C19.3876 1.214 20.6479 2.02697 21.6975 3.075L26.9235 8.304C27.9727 9.35232 28.7863 10.6123 29.31 12H19.5C19.1022 12 18.7206 11.842 18.4393 11.5607C18.158 11.2794 18 10.8978 18 10.5ZM30 15.7275V28.5C29.9976 30.4884 29.2067 32.3947 27.8007 33.8007C26.3947 35.2067 24.4884 35.9976 22.5 36H7.5C5.51161 35.9976 3.60534 35.2067 2.19933 33.8007C0.793323 32.3947 0.00238179 30.4884 0 28.5V7.5C0.00238179 5.51161 0.793323 3.60534 2.19933 2.19933C3.60534 0.793323 5.51161 0.00238179 7.5 0L14.2725 0C14.517 0 14.7585 0.0195 15 0.036V10.5C15 11.6935 15.4741 12.8381 16.318 13.682C17.1619 14.5259 18.3065 15 19.5 15H29.964C29.9805 15.2415 30 15.483 30 15.7275ZM18 28.5C18 28.1022 17.842 27.7206 17.5607 27.4393C17.2794 27.158 16.8978 27 16.5 27H9C8.60218 27 8.22064 27.158 7.93934 27.4393C7.65804 27.7206 7.5 28.1022 7.5 28.5C7.5 28.8978 7.65804 29.2794 7.93934 29.5607C8.22064 29.842 8.60218 30 9 30H16.5C16.8978 30 17.2794 29.842 17.5607 29.5607C17.842 29.2794 18 28.8978 18 28.5ZM22.5 22.5C22.5 22.1022 22.342 21.7206 22.0607 21.4393C21.7794 21.158 21.3978 21 21 21H9C8.60218 21 8.22064 21.158 7.93934 21.4393C7.65804 21.7206 7.5 22.1022 7.5 22.5C7.5 22.8978 7.65804 23.2794 7.93934 23.5607C8.22064 23.842 8.60218 24 9 24H21C21.3978 24 21.7794 23.842 22.0607 23.5607C22.342 23.2794 22.5 22.8978 22.5 22.5Z" fill="white"/>
<path d="M18 10.5V0.69C19.3876 1.214 20.6479 2.02697 21.6975 3.075L26.9235 8.304C27.9727 9.35232 28.7863 10.6123 29.31 12H19.5C19.1022 12 18.7206 11.842 18.4393 11.5607C18.158 11.2794 18 10.8978 18 10.5ZM30 15.7275V28.5C29.9976 30.4884 29.2067 32.3947 27.8007 33.8007C26.3947 35.2067 24.4884 35.9976 22.5 36H7.5C5.51161 35.9976 3.60534 35.2067 2.19933 33.8007C0.793323 32.3947 0.00238179 30.4884 0 28.5V7.5C0.00238179 5.51161 0.793323 3.60534 2.19933 2.19933C3.60534 0.793323 5.51161 0.00238179 7.5 0L14.2725 0C14.517 0 14.7585 0.0195 15 0.036V10.5C15 11.6935 15.4741 12.8381 16.318 13.682C17.1619 14.5259 18.3065 15 19.5 15H29.964C29.9805 15.2415 30 15.483 30 15.7275ZM18 28.5C18 28.1022 17.842 27.7206 17.5607 27.4393C17.2794 27.158 16.8978 27 16.5 27H9C8.60218 27 8.22064 27.158 7.93934 27.4393C7.65804 27.7206 7.5 28.1022 7.5 28.5C7.5 28.8978 7.65804 29.2794 7.93934 29.5607C8.22064 29.842 8.60218 30 9 30H16.5C16.8978 30 17.2794 29.842 17.5607 29.5607C17.842 29.2794 18 28.8978 18 28.5ZM22.5 22.5C22.5 22.1022 22.342 21.7206 22.0607 21.4393C21.7794 21.158 21.3978 21 21 21H9C8.60218 21 8.22064 21.158 7.93934 21.4393C7.65804 21.7206 7.5 22.1022 7.5 22.5C7.5 22.8978 7.65804 23.2794 7.93934 23.5607C8.22064 23.842 8.60218 24 9 24H21C21.3978 24 21.7794 23.842 22.0607 23.5607C22.342 23.2794 22.5 22.8978 22.5 22.5Z" fill="url(#paint0_linear_972_3510)"/>
<defs>
<linearGradient id="paint0_linear_972_3510" x1="2.5" y1="4" x2="35.2098" y2="44.9328" gradientUnits="userSpaceOnUse">
<stop stop-color="#0040FF"/>
<stop offset="0.484351" stop-color="#00FFD0"/>
<stop offset="1" stop-color="#00FF2F"/>
</linearGradient>
</defs>
</svg>
