<svg width="36" height="36" viewBox="0 0 36 36" fill="none" xmlns="http://www.w3.org/2000/svg">
<g clip-path="url(#clip0_972_3527)">
<path d="M21 34.5C21 35.328 20.328 36 19.5 36H1.5C0.672 36 0 35.328 0 34.5C0 28.701 4.701 24 10.5 24C16.299 24 21 28.701 21 34.5ZM10.5 9C7.1865 9 4.5 11.6865 4.5 15C4.5 18.3135 7.1865 21 10.5 21C13.8135 21 16.5 18.3135 16.5 15C16.5 11.6865 13.8135 9 10.5 9ZM36 7.5V19.5C36 23.6415 32.6415 27 28.5 27H21.711C20.2935 24.891 18.2985 23.2005 15.9525 22.1595C18.108 20.5155 19.5 17.9205 19.5 15C19.5 10.029 15.471 6 10.5 6C8.874 6 7.347 6.432 6.0315 7.1865C6.1995 3.1995 9.4725 0 13.5 0H28.5C32.6415 0 36 3.3585 36 7.5ZM30 22.5C30 21.6705 29.328 21 28.5 21H23.25C22.422 21 21.75 21.6705 21.75 22.5C21.75 23.3295 22.422 24 23.25 24H28.5C29.328 24 30 23.3295 30 22.5Z" fill="url(#paint0_linear_972_3527)"/>
</g>
<defs>
<linearGradient id="paint0_linear_972_3527" x1="2.99999" y1="4" x2="33.9428" y2="50.4659" gradientUnits="userSpaceOnUse">
<stop stop-color="#0040FF"/>
<stop offset="0.484351" stop-color="#00FFD0"/>
<stop offset="1" stop-color="#00FF2F"/>
</linearGradient>
<clipPath id="clip0_972_3527">
<rect width="36" height="36" fill="white"/>
</clipPath>
</defs>
</svg>
