<svg width="36" height="36" viewBox="0 0 36 36" fill="none" xmlns="http://www.w3.org/2000/svg">
<g clip-path="url(#clip0_972_3524)">
<path d="M31.5 16.5H24C21.519 16.5 19.5 18.519 19.5 21V31.5C19.5 33.981 21.519 36 24 36H31.5C33.981 36 36 33.981 36 31.5V21C36 18.519 33.981 16.5 31.5 16.5ZM30 30H25.5C24.6705 30 24 29.328 24 28.5C24 27.672 24.6705 27 25.5 27H30C30.8295 27 31.5 27.672 31.5 28.5C31.5 29.328 30.8295 30 30 30ZM30 23.9955H25.5C24.6705 23.9955 24 23.3235 24 22.4955C24 21.6675 24.6705 20.9955 25.5 20.9955H30C30.8295 20.9955 31.5 21.6675 31.5 22.4955C31.5 23.3235 30.8295 23.9955 30 23.9955ZM4.5 9C4.5 4.0365 8.5365 0 13.5 0C18.4635 0 22.5 4.0365 22.5 9C22.5 13.9635 18.4635 18 13.5 18C8.5365 18 4.5 13.9635 4.5 9ZM18.039 36H1.5C0.664503 36 -0.00149747 35.31 2.5288e-06 34.4745C0.0135025 27.042 6.0645 21 13.5 21C14.532 21 15.534 21.1275 16.5 21.348V31.5C16.5 33.195 17.0865 34.743 18.039 36Z" fill="url(#paint0_linear_972_3524)"/>
</g>
<defs>
<linearGradient id="paint0_linear_972_3524" x1="3" y1="4" x2="33.9428" y2="50.4659" gradientUnits="userSpaceOnUse">
<stop stop-color="#0040FF"/>
<stop offset="0.484351" stop-color="#00FFD0"/>
<stop offset="1" stop-color="#00FF2F"/>
</linearGradient>
<clipPath id="clip0_972_3524">
<rect width="36" height="36" fill="white"/>
</clipPath>
</defs>
</svg>
