<svg width="36" height="36" viewBox="0 0 36 36" fill="none" xmlns="http://www.w3.org/2000/svg">
<path d="M16.5 33C16.182 33 15.8655 32.898 15.6 32.7L9.6 28.2C9.222 27.918 9 27.4725 9 27V21.555L1.416 12.7065C0.5025 11.6415 0 10.2825 0 8.88C0 5.637 2.637 3 5.88 3H21.12C24.363 3 27 5.637 27 8.88C27 10.2825 26.4975 11.6415 25.584 12.7065L18 21.555V31.5C18 32.0685 17.679 32.5875 17.1705 32.8425C16.9575 32.949 16.728 33 16.5 33ZM36 30C36 29.172 35.328 28.5 34.5 28.5H22.5C21.672 28.5 21 29.172 21 30C21 30.828 21.672 31.5 22.5 31.5H34.5C35.328 31.5 36 30.828 36 30ZM36 24C36 23.172 35.328 22.5 34.5 22.5H22.5C21.672 22.5 21 23.172 21 24C21 24.828 21.672 25.5 22.5 25.5H34.5C35.328 25.5 36 24.828 36 24ZM36 18C36 17.172 35.328 16.5 34.5 16.5H27C26.172 16.5 25.5 17.172 25.5 18C25.5 18.828 26.172 19.5 27 19.5H34.5C35.328 19.5 36 18.828 36 18Z" fill="black"/>
<path d="M16.5 33C16.182 33 15.8655 32.898 15.6 32.7L9.6 28.2C9.222 27.918 9 27.4725 9 27V21.555L1.416 12.7065C0.5025 11.6415 0 10.2825 0 8.88C0 5.637 2.637 3 5.88 3H21.12C24.363 3 27 5.637 27 8.88C27 10.2825 26.4975 11.6415 25.584 12.7065L18 21.555V31.5C18 32.0685 17.679 32.5875 17.1705 32.8425C16.9575 32.949 16.728 33 16.5 33ZM36 30C36 29.172 35.328 28.5 34.5 28.5H22.5C21.672 28.5 21 29.172 21 30C21 30.828 21.672 31.5 22.5 31.5H34.5C35.328 31.5 36 30.828 36 30ZM36 24C36 23.172 35.328 22.5 34.5 22.5H22.5C21.672 22.5 21 23.172 21 24C21 24.828 21.672 25.5 22.5 25.5H34.5C35.328 25.5 36 24.828 36 24ZM36 18C36 17.172 35.328 16.5 34.5 16.5H27C26.172 16.5 25.5 17.172 25.5 18C25.5 18.828 26.172 19.5 27 19.5H34.5C35.328 19.5 36 18.828 36 18Z" fill="url(#paint0_linear_972_3515)"/>
<defs>
<linearGradient id="paint0_linear_972_3515" x1="2.99999" y1="6.33334" x2="26.7141" y2="49.0664" gradientUnits="userSpaceOnUse">
<stop stop-color="#0040FF"/>
<stop offset="0.484351" stop-color="#00FFD0"/>
<stop offset="1" stop-color="#00FF2F"/>
</linearGradient>
</defs>
</svg>
