<svg width="38" height="38" viewBox="0 0 38 38" fill="none" xmlns="http://www.w3.org/2000/svg">
<g clip-path="url(#clip0_983_2745)">
<path fill-rule="evenodd" clip-rule="evenodd" d="M7.19329 16.6596L7.97764 17.2459V16.0444L7.19329 16.6596ZM30.023 16.001V17.2461L30.8599 16.6239L30.023 16.001ZM32.2112 35.3127V18.5777L19.7111 27.8988C19.5064 28.0518 19.2576 28.1345 19.0021 28.1345C18.7465 28.1345 18.4977 28.0518 18.293 27.8988L5.78937 18.5777V35.3127C5.79074 35.3955 5.82445 35.4746 5.8833 35.5329C5.94215 35.5913 6.02148 35.6243 6.10436 35.625H31.8995C31.9819 35.6237 32.0605 35.5903 32.1187 35.532C32.1769 35.4737 32.2101 35.395 32.2112 35.3126V35.3127ZM3.41504 35.3127V17.1771C3.41497 16.9965 3.45628 16.8184 3.5358 16.6563C3.61533 16.4941 3.73095 16.3524 3.87379 16.242L7.73939 13.2149C7.8136 13.159 7.89339 13.1109 7.97749 13.0713V6.39083C7.97757 6.23464 8.00855 6.08001 8.06865 5.93584C8.12874 5.79167 8.21677 5.66082 8.32765 5.55082L13.5308 0.348087C13.6404 0.237622 13.7708 0.149981 13.9145 0.0902335C14.0582 0.0304858 14.2123 -0.000183032 14.3679 8.21744e-07H28.836C29.1508 0.000236851 29.4527 0.12544 29.6752 0.348104C29.8978 0.570767 30.0229 0.872676 30.023 1.1875V13.0706C30.0998 13.1053 30.1726 13.1483 30.2401 13.1988L34.1092 16.0874C34.2573 16.1979 34.3775 16.3416 34.4602 16.5068C34.5429 16.6721 34.5858 16.8544 34.5854 17.0391V35.3127C34.5849 36.025 34.3018 36.708 33.7982 37.2118C33.2947 37.7156 32.6118 37.9991 31.8995 38H6.10436C5.39171 37.9992 4.70847 37.7158 4.20439 37.2121C3.7003 36.7083 3.4165 36.0253 3.41519 35.3126L3.41504 35.3127ZM14.9909 32.8412C14.9912 32.9972 14.9607 33.1517 14.9012 33.2958C14.8416 33.44 14.7542 33.571 14.6439 33.6813C14.5337 33.7916 14.4027 33.8791 14.2586 33.9387C14.1144 33.9983 13.9599 34.0289 13.804 34.0287H8.55187C8.23692 34.0287 7.93488 33.9036 7.71218 33.6809C7.48948 33.4582 7.36437 33.1561 7.36437 32.8412C7.36437 32.5263 7.48948 32.2242 7.71218 32.0015C7.93488 31.7788 8.23692 31.6537 8.55187 31.6537H13.8041C13.9601 31.6535 14.1145 31.6841 14.2587 31.7438C14.4028 31.8034 14.5337 31.8909 14.644 32.0012C14.7542 32.1115 14.8417 32.2425 14.9012 32.3866C14.9608 32.5308 14.9913 32.6852 14.9911 32.8412H14.9909ZM19.9701 20.8371C20.285 20.8371 20.587 20.9622 20.8097 21.1849C21.0324 21.4076 21.1576 21.7096 21.1576 22.0246C21.1576 22.3395 21.0324 22.6416 20.8097 22.8643C20.587 23.087 20.285 23.2121 19.9701 23.2121H18.0304C17.7155 23.2121 17.4134 23.087 17.1907 22.8643C16.968 22.6416 16.8429 22.3395 16.8429 22.0246C16.8429 21.7096 16.968 21.4076 17.1907 21.1849C17.4134 20.9622 17.7155 20.8371 18.0304 20.8371H19.9701ZM24.9177 15.9115H13.0828C12.7678 15.9115 12.4658 16.0366 12.2431 16.2593C12.0204 16.482 11.8953 16.784 11.8953 17.099C11.8953 17.4139 12.0204 17.716 12.2431 17.9387C12.4658 18.1614 12.7678 18.2865 13.0828 18.2865H24.9178C25.2328 18.2865 25.5348 18.1614 25.7575 17.9387C25.9802 17.716 26.1053 17.4139 26.1053 17.099C26.1053 16.784 25.9802 16.482 25.7575 16.2593C25.5348 16.0366 25.2328 15.9115 24.9178 15.9115H24.9177ZM24.9177 10.9859H13.0828C12.7678 10.9859 12.4658 11.111 12.2431 11.3337C12.0204 11.5564 11.8953 11.8585 11.8953 12.1734C11.8953 12.4884 12.0204 12.7904 12.2431 13.0131C12.4658 13.2358 12.7678 13.3609 13.0828 13.3609H24.9178C25.2328 13.3609 25.5348 13.2358 25.7575 13.0131C25.9802 12.7904 26.1053 12.4884 26.1053 12.1734C26.1053 11.8585 25.9802 11.5564 25.7575 11.3337C25.5348 11.111 25.2328 10.9859 24.9178 10.9859H24.9177ZM16.0065 7.24761C16.0067 7.56243 16.1317 7.86433 16.3543 8.08699C16.5769 8.30964 16.8787 8.43485 17.1935 8.43511H24.9178C25.2328 8.43511 25.5348 8.31 25.7575 8.0873C25.9802 7.8646 26.1053 7.56255 26.1053 7.24761C26.1053 6.93267 25.9802 6.63062 25.7575 6.40792C25.5348 6.18522 25.2328 6.06011 24.9178 6.06011H17.1935C16.8787 6.06025 16.5768 6.18542 16.3542 6.4081C16.1316 6.63079 16.0065 6.93276 16.0065 7.24761Z" fill="url(#paint0_linear_983_2745)"/>
</g>
<defs>
<linearGradient id="paint0_linear_983_2745" x1="6.01257" y1="4.22222" x2="40.6559" y2="46.8953" gradientUnits="userSpaceOnUse">
<stop stop-color="#0040FF"/>
<stop offset="0.484351" stop-color="#00FFD0"/>
<stop offset="1" stop-color="#00FF2F"/>
</linearGradient>
<clipPath id="clip0_983_2745">
<rect width="38" height="38" fill="white"/>
</clipPath>
</defs>
</svg>
