<svg width="25" height="25" viewBox="0 0 25 25" fill="none" xmlns="http://www.w3.org/2000/svg">
<g clip-path="url(#clip0_972_3367)">
<path d="M12.5004 0.0429688C9.74408 0.0460011 7.10151 1.14221 5.15241 3.09112C3.2033 5.04003 2.10682 7.68249 2.10352 10.4388C2.10352 13.1159 4.17643 17.3055 8.26497 22.8909C8.7517 23.5577 9.38899 24.1001 10.125 24.4741C10.861 24.8481 11.6748 25.043 12.5004 25.043C13.3259 25.043 14.1398 24.8481 14.8758 24.4741C15.6118 24.1001 16.2491 23.5577 16.7358 22.8909C20.8244 17.3055 22.8973 13.1159 22.8973 10.4388C22.894 7.68249 21.7975 5.04003 19.8484 3.09112C17.8993 1.14221 15.2567 0.0460011 12.5004 0.0429688ZM12.5004 14.5826C11.6763 14.5826 10.8707 14.3382 10.1855 13.8803C9.50031 13.4225 8.96626 12.7718 8.65089 12.0104C8.33553 11.249 8.25301 10.4113 8.41379 9.60301C8.57456 8.79475 8.97139 8.05233 9.55411 7.46961C10.1368 6.88689 10.8793 6.49005 11.6875 6.32928C12.4958 6.16851 13.3335 6.25102 14.0949 6.56639C14.8563 6.88175 15.507 7.4158 15.9648 8.10101C16.4227 8.78621 16.6671 9.5918 16.6671 10.4159C16.6671 11.521 16.2281 12.5808 15.4467 13.3622C14.6653 14.1436 13.6055 14.5826 12.5004 14.5826Z" fill="white"/>
</g>
<defs>
<clipPath id="clip0_972_3367">
<rect width="25" height="25" fill="white"/>
</clipPath>
</defs>
</svg>
