<svg width="37" height="37" viewBox="0 0 37 37" fill="none" xmlns="http://www.w3.org/2000/svg">
<g clip-path="url(#clip0_972_3378)">
<path d="M8.38281 21.3906C8.38281 19.1989 10.1657 17.416 12.3574 17.416H24.6426C25.6388 17.416 26.4492 16.6056 26.4492 15.6094V5.41992C26.4492 2.43134 24.0179 0 21.0293 0H15.9707C12.9821 0 10.5508 2.43134 10.5508 5.41992V8.38281H18.5C19.0987 8.38281 19.584 8.86806 19.584 9.4668C19.584 10.0655 19.0987 10.5508 18.5 10.5508H5.41992C2.43134 10.5508 0 12.9821 0 15.9707V21.0293C0 24.0179 2.43134 26.4492 5.41992 26.4492H8.38281V21.3906ZM15.9707 5.49219C15.372 5.49219 14.8867 5.00694 14.8867 4.4082C14.8867 3.80947 15.372 3.32422 15.9707 3.32422C16.5694 3.32422 17.0547 3.80947 17.0547 4.4082C17.0547 5.00694 16.5694 5.49219 15.9707 5.49219Z" fill="#2E5980"/>
<path d="M31.5801 10.5508H28.6172V15.6094C28.6172 17.8011 26.8343 19.584 24.6426 19.584H12.3574C11.3612 19.584 10.5508 20.3944 10.5508 21.3906V31.5801C10.5508 34.5687 12.9821 37 15.9707 37H21.0293C24.0179 37 26.4492 34.5687 26.4492 31.5801V28.6172H18.5C17.9013 28.6172 17.416 28.1319 17.416 27.5332C17.416 26.9345 17.9013 26.4492 18.5 26.4492H31.5801C34.5687 26.4492 37 24.0179 37 21.0293V15.9707C37 12.9821 34.5687 10.5508 31.5801 10.5508ZM21.0293 31.5078C21.628 31.5078 22.1133 31.9931 22.1133 32.5918C22.1133 33.1905 21.628 33.6758 21.0293 33.6758C20.4306 33.6758 19.9453 33.1905 19.9453 32.5918C19.9453 31.9931 20.4306 31.5078 21.0293 31.5078Z" fill="#D1AE35"/>
</g>
<defs>
<clipPath id="clip0_972_3378">
<rect width="37" height="37" fill="white"/>
</clipPath>
</defs>
</svg>
