<svg width="22" height="22" viewBox="0 0 22 22" fill="none" xmlns="http://www.w3.org/2000/svg">
<g clip-path="url(#clip0_972_3374)">
<path d="M17.3717 21.0838H17.3414C16.873 21.0765 16.4275 20.8776 16.1094 20.5338L14.3513 18.8096C13.9993 18.4457 14.0075 17.8654 14.3714 17.5134C14.3723 17.5125 14.3733 17.5116 14.3742 17.5107C14.7381 17.1614 15.3156 17.1715 15.6667 17.5327L17.3726 19.2038L20.4352 16.1412C20.7927 15.7837 21.3738 15.7837 21.7313 16.1412C22.0888 16.4987 22.0888 17.0798 21.7313 17.4373L18.5954 20.5733C18.2728 20.9005 17.8318 21.0848 17.3717 21.0838Z" fill="white"/>
<path d="M12.8649 18.3467C12.8612 15.3244 15.3078 12.8714 18.3291 12.8668C19.5052 12.865 20.651 13.2427 21.5952 13.9439C23.2205 8.091 19.793 2.02908 13.941 0.403833C8.08904 -1.22142 2.02804 2.20508 0.402792 8.058C-1.22246 13.9109 2.20496 19.9738 8.05696 21.599C9.98196 22.1334 12.016 22.1334 13.941 21.599C13.2425 20.6585 12.8649 19.5182 12.8649 18.3467ZM11.9161 11.0198C11.9161 11.2636 11.819 11.4964 11.6466 11.6687L8.89204 14.4242C8.52721 14.7762 7.94604 14.7662 7.59404 14.4013C7.25029 14.0457 7.25029 13.481 7.59404 13.1253L10.08 10.6393V6.42817C10.08 5.92125 10.4907 5.50967 10.9985 5.50967C11.5055 5.50967 11.9161 5.92125 11.9161 6.42817V11.0198Z" fill="white"/>
</g>
<defs>
<clipPath id="clip0_972_3374">
<rect width="22" height="22" fill="white"/>
</clipPath>
</defs>
</svg>
