<svg width="122" height="264" viewBox="0 0 122 264" fill="none" xmlns="http://www.w3.org/2000/svg">
<path fill-rule="evenodd" clip-rule="evenodd" d="M103.996 40.3112C113.736 38.8325 121.199 30.4233 121.199 20.2709C121.199 9.0756 112.123 0 100.928 0C89.7328 0 80.6572 9.0756 80.6572 20.2709C80.6572 30.4231 88.1204 38.8322 97.8596 40.3111V174.477H0V263.871H6.13655V180.614H103.996V40.3112ZM115.063 20.2709C115.063 28.0771 108.734 34.4053 100.928 34.4053C93.1219 34.4053 86.7938 28.0771 86.7938 20.2709C86.7938 12.4647 93.1219 6.13655 100.928 6.13655C108.734 6.13655 115.063 12.4647 115.063 20.2709Z" fill="url(#paint0_linear_470_10609)" fill-opacity="0.53" style="mix-blend-mode:screen"/>
<defs>
<linearGradient id="paint0_linear_470_10609" x1="120.89" y1="-9.37598e-07" x2="60.5995" y2="263.871" gradientUnits="userSpaceOnUse">
<stop stop-color="white"/>
<stop offset="1" stop-color="white" stop-opacity="0"/>
</linearGradient>
</defs>
</svg>
