<svg width="122" height="264" viewBox="0 0 122 264" fill="none" xmlns="http://www.w3.org/2000/svg">
<path fill-rule="evenodd" clip-rule="evenodd" d="M17.2029 223.56C7.46342 225.039 -8.87549e-07 233.448 0 243.6C9.78726e-07 254.796 9.0756 263.871 20.2709 263.871C31.4662 263.871 40.5418 254.796 40.5418 243.6C40.5418 233.448 33.0787 225.039 23.3394 223.56L23.3394 89.3944L121.199 89.3944L121.199 0L115.062 5.36474e-07L115.063 83.2579L17.2029 83.2579L17.2029 223.56ZM6.13655 243.6C6.13654 235.794 12.4647 229.466 20.2709 229.466C28.0771 229.466 34.4053 235.794 34.4053 243.6C34.4053 251.407 28.0771 257.735 20.2709 257.735C12.4647 257.735 6.13655 251.407 6.13655 243.6Z" fill="url(#paint0_linear_470_10610)" fill-opacity="0.53" style="mix-blend-mode:screen"/>
<defs>
<linearGradient id="paint0_linear_470_10610" x1="19.6375" y1="263.871" x2="144.823" y2="-6.24313e-06" gradientUnits="userSpaceOnUse">
<stop stop-color="white"/>
<stop offset="1" stop-color="white" stop-opacity="0"/>
</linearGradient>
</defs>
</svg>
