<svg width="165" height="38" viewBox="0 0 165 38" fill="none" xmlns="http://www.w3.org/2000/svg">
<path fill-rule="evenodd" clip-rule="evenodd" d="M127.155 21.8451C128.619 30.7558 136.357 37.5537 145.682 37.5537C156.052 37.5537 164.459 29.147 164.459 18.7768C164.459 8.40667 156.052 -1.59937e-05 145.682 -1.69003e-05C136.357 -1.77156e-05 128.619 6.79791 127.155 15.7086L-0.000211713 15.7085L-0.00021225 21.8451L127.155 21.8451ZM145.682 31.4172C138.701 31.4172 133.042 25.7579 133.042 18.7768C133.042 11.7958 138.701 6.13653 145.682 6.13653C152.663 6.13653 158.322 11.7958 158.322 18.7768C158.322 25.7579 152.663 31.4172 145.682 31.4172Z" fill="url(#paint0_linear_470_10612)" fill-opacity="0.53"/>
<defs>
<linearGradient id="paint0_linear_470_10612" x1="164.459" y1="19.1441" x2="-0.000437472" y2="19.1441" gradientUnits="userSpaceOnUse">
<stop stop-color="white"/>
<stop offset="1" stop-color="white" stop-opacity="0"/>
</linearGradient>
</defs>
</svg>
